<?xml version="1.0" encoding="UTF-8"?>
<svg id="Layer_2" data-name="Layer 2" xmlns="http://www.w3.org/2000/svg" viewBox="0 0 800 800.5">
  <defs>
    <style>
      .cls-1 {
        fill: #fff;
      }
    </style>
  </defs>
  <rect width="800" height="800" rx="50" ry="50"/>
  <g>
    <rect class="cls-1" x="368.5" y="169.57" width="29.11" height="461.36"/>
    <rect class="cls-1" x="314.82" y="234.45" width="29.11" height="331.6"/>
    <rect class="cls-1" x="422.18" y="234.45" width="29.11" height="331.6"/>
    <rect class="cls-1" x="92.64" y="354.83" width="29.11" height="90.85"/>
    <rect class="cls-1" x="41.7" y="383.08" width="29.11" height="34.33"/>
    <rect class="cls-1" x="678.25" y="354.83" width="29.11" height="90.85" transform="translate(1385.61 800.5) rotate(-180)"/>
    <rect class="cls-1" x="729.19" y="383.08" width="29.11" height="34.33" transform="translate(1487.49 800.5) rotate(-180)"/>
    <path class="cls-1" d="M634.1,389.34c-15.46-10.71-33.66-15.7-57.29-15.7-9.29,0-21.52,1.43-32.12,3.68.07-5.71.22-12.7.45-18.04,22.27-.64,45.26-1.38,69.26-3.42l4.38-.37v-24.22l-5.2.45c-21.55,1.87-44.95,3.08-66.52,3.44.84-8.88,1.73-17.02,3.13-24.68l1.03-5.64h-26l-.81,3.79c-1.73,8.15-2.53,16.96-3.23,27.32h-39.94v24.18h38.14c-.05,4.11-.14,8.4-.23,12.58-.09,4.11-.18,8.06-.21,11.61-12.94,5.17-24.27,12.86-33.75,22.94-11.54,12.63-17.65,26.22-17.65,39.28s3.95,24.22,11.67,31.65c6.28,6.32,14.75,9.8,25.16,10.36h.22c.18.01.37.05.58.07.59.08,1.32.17,2.15.17,16.32,0,34.59-8.48,52.87-24.55,20.09-18.04,35.26-39.75,44.08-63.03,6.92,2.2,12.21,5.34,17.12,10.07,6.05,6.03,9.12,13.14,9.12,21.12,0,11.98-5.31,21.22-15.77,27.46-7.74,4.6-19.2,8.2-34.07,10.7l-6.48,1.09,3.03,5.83c2.62,5.05,5.1,9.82,7.5,14.92l1.54,3.27,3.56-.59c18.1-2.99,32.87-8.75,43.89-17.12,15.42-10.97,23.24-26.3,23.24-45.56,0-18.06-7.69-32.54-22.86-43.05ZM519.78,410.37c1.17,19.79,3.76,35.33,7.72,46.35-5.88,4.14-12.63,6.47-18.95,6.47-5.5,0-9.35-1.38-11.78-4.22l-.1-.11c-2.55-2.8-3.89-7.07-3.89-12.33,0-6.96,3.17-14.46,9.16-21.68,4.78-5.71,10.97-10.71,17.84-14.49ZM577.72,397.59c-5.87,13.4-14.94,29.7-28.26,43.28-2.67-11.19-4.32-24.72-4.73-39.15,8.78-2.45,21.17-4.02,32.99-4.13Z"/>
    <path class="cls-1" d="M134.65,495.67l48.59-190.83h51.57l49.13,190.83h-41.53l-9.5-43.13h-47.23l-9.5,43.13h-41.53ZM192.46,421.16h33.39l-9.5-46.01c-1.27-6.62-2.58-13.2-3.94-19.74-1.36-6.54-2.4-11.63-3.12-15.29-.73,3.66-1.67,8.72-2.85,15.16-1.18,6.45-2.49,12.98-3.94,19.61l-10.04,46.27Z"/>
  </g>
</svg>